<?xml version="1.0" encoding="iso-8859-1"?>
<!-- Generator: Adobe Illustrator 19.0.0, SVG Export Plug-In . SVG Version: 6.00 Build 0)  -->
<svg version="1.1" id="Layer_1" xmlns="http://www.w3.org/2000/svg" xmlns:xlink="http://www.w3.org/1999/xlink" x="0px" y="0px"
	 viewBox="0 0 512 512" style="enable-background:new 0 0 512 512;" xml:space="preserve">
<g transform="translate(1 1)">
	<polygon style="fill:#EEEEEE;" points="362.055,120.018 194.491,140.498 194.491,45.545 362.055,25.065 	"/>
	<polygon style="fill:#CCCCCC;" points="483.073,103.262 306.2,120.018 306.2,25.065 483.073,8.309 	"/>
	<polygon style="fill:#E2E3E5;" points="455.145,103.262 222.418,140.498 222.418,45.545 455.145,8.309 	"/>
	<g>
		<path style="fill:#CCCCCC;" d="M194.491,427.218c0,40.96-37.236,74.473-83.782,74.473s-83.782-33.513-83.782-74.473
			s37.236-74.473,83.782-74.473S194.491,386.258,194.491,427.218"/>
		<path style="fill:#CCCCCC;" d="M483.073,334.127c0,40.96-37.236,74.473-83.782,74.473s-83.782-33.513-83.782-74.473
			s37.236-74.473,83.782-74.473S483.073,293.167,483.073,334.127"/>
	</g>
	<g>
		<path style="fill:#E2E3E5;" d="M166.564,427.218c0,40.96-25.135,74.473-55.855,74.473s-55.855-33.513-55.855-74.473
			s25.135-74.473,55.855-74.473S166.564,386.258,166.564,427.218"/>
		<path style="fill:#E2E3E5;" d="M455.145,334.127c0,40.96-25.135,74.473-55.855,74.473s-55.855-33.513-55.855-74.473
			s25.135-74.473,55.855-74.473S455.145,293.167,455.145,334.127"/>
	</g>
	<g>
		<path style="fill:#FFFFFF;" d="M343.436,334.127c0-40.96,25.135-74.473,55.855-74.473c-46.545,0-83.782,33.513-83.782,74.473
			s37.236,74.473,83.782,74.473C368.571,408.6,343.436,375.087,343.436,334.127"/>
		<path style="fill:#FFFFFF;" d="M54.855,427.218c0-40.96,25.135-74.473,55.855-74.473c-46.545,0-83.782,33.513-83.782,74.473
			s37.236,74.473,83.782,74.473C79.989,501.691,54.855,468.178,54.855,427.218"/>
	</g>
	<g>
		<path style="fill:#B6B6B6;" d="M194.491,149.807c-1.862,0-4.655-0.931-6.516-1.862c-1.862-1.862-2.793-4.655-2.793-7.447V45.545
			c0-4.655,3.724-8.378,8.378-9.309L482.142-1c2.793,0,5.585,0,7.447,1.862s2.793,4.655,2.793,7.447v94.953
			c0,4.655-3.724,8.378-8.378,9.309l-288.582,37.236C195.422,149.807,194.491,149.807,194.491,149.807z M203.8,53.924v76.335
			l269.964-35.375V18.549L203.8,53.924z M483.073,103.262L483.073,103.262L483.073,103.262z"/>
		<path style="fill:#B6B6B6;" d="M194.491,428.149c-5.585,0-9.309-3.724-9.309-9.309V101.4c0-5.585,3.724-9.309,9.309-9.309
			c5.585,0,9.309,3.724,9.309,9.309v317.44C203.8,424.425,200.076,428.149,194.491,428.149z"/>
		<path style="fill:#B6B6B6;" d="M483.073,344.367c-5.585,0-9.309-3.724-9.309-9.309V64.164c0-5.585,3.724-9.309,9.309-9.309
			c5.585,0,9.309,3.724,9.309,9.309v270.895C492.382,339.713,488.658,344.367,483.073,344.367z"/>
		<path style="fill:#B6B6B6;" d="M110.709,511c-51.2,0-93.091-37.236-93.091-83.782s41.891-83.782,93.091-83.782
			s93.091,37.236,93.091,83.782S161.909,511,110.709,511z M110.709,362.055c-40.96,0-74.473,28.858-74.473,65.164
			s33.513,65.164,74.473,65.164s74.473-28.858,74.473-65.164S151.669,362.055,110.709,362.055z"/>
		<path style="fill:#B6B6B6;" d="M399.291,417.909c-51.2,0-93.091-37.236-93.091-83.782s41.891-83.782,93.091-83.782
			s93.091,37.236,93.091,83.782S450.491,417.909,399.291,417.909z M399.291,268.964c-40.96,0-74.473,28.858-74.473,65.164
			s33.513,65.164,74.473,65.164s74.473-28.858,74.473-65.164S440.251,268.964,399.291,268.964z"/>
	</g>
</g>
<g>
</g>
<g>
</g>
<g>
</g>
<g>
</g>
<g>
</g>
<g>
</g>
<g>
</g>
<g>
</g>
<g>
</g>
<g>
</g>
<g>
</g>
<g>
</g>
<g>
</g>
<g>
</g>
<g>
</g>
</svg>
